<?xml version="1.0" encoding="utf-8"?>
<!-- Generator: Adobe Illustrator 27.5.0, SVG Export Plug-In . SVG Version: 6.00 Build 0)  -->
<svg version="1.1" id="Layer_1" xmlns="http://www.w3.org/2000/svg" xmlns:xlink="http://www.w3.org/1999/xlink" x="0px" y="0px"
	 viewBox="0 0 425.197 425.197" style="enable-background:new 0 0 425.197 425.197;" xml:space="preserve">
<rect x="0.642" y="0.803" style="fill:#DADADA;" width="424.555" height="424.394"/>
<g id="XMLID_1_">
	<g>
		<path style="fill:#EA4335;" d="M214.38,97.77c-50.78,0-93.84,33.54-108.92,80.01l-0.97-0.31l-65.24-51.06
			c31.74-64.3,97.97-108.52,174.53-108.52c49.07,0,93.89,18.16,128.11,48.14l-56.38,56.88C265.97,107.17,241.26,97.77,214.38,97.77z
			"/>
		<path style="fill:#4285F5;" d="M299.37,293.69c2.52-3.58,5.08-7.64,7.53-12.2c5.52-10.28,8.75-19.98,10.7-27.99H214.5v-76h180.69
			c2.18,9.89,4.33,23.25,4.55,39.14c0.16,11.1-0.47,34.12-9.1,61.66c-8.56,27.33-20.8,45.68-24.12,50.52
			c-2.16,3.15-9.85,14.14-22.3,26.62c-1.49,1.5-2.98,2.94-4.46,4.33l-0.82-0.87l-61.05-47.58c0-0.01,0.01-0.01,0.01-0.01
			c7.63-5.17,14.62-11.25,20.81-18.08L299.37,293.69z"/>
		<path style="fill:#35A854;" d="M104.5,247.69c14.13,48.08,57.97,83.13,109.88,83.13c23.49,0,45.33-7.18,63.51-19.5l61.05,47.58
			l0.82,0.87c-10.77,10.15-21.05,17.6-29.27,22.89l-0.66-1.02c-28.34,16.13-61.12,25.33-96.05,25.33
			c-76.56,0-142.79-44.23-174.54-108.53l0.01-0.01l65.24-50.75h0.01V247.69z"/>
		<path style="fill:#FBBC04;" d="M104.49,177.47l0.97,0.31c-3.72,11.48-5.74,23.76-5.74,36.51c0,11.6,1.67,22.81,4.78,33.39h-0.01
			l-65.24,50.75l-0.01,0.01c-12.8-25.93-20-55.13-20-86.01c0-30.89,7.2-60.09,20.01-86.02L104.49,177.47z"/>
	</g>
	<g>
	</g>
</g>
</svg>
