<?xml version="1.0" encoding="UTF-8"?>
<svg id="Layer_2" xmlns="http://www.w3.org/2000/svg" xmlns:xlink="http://www.w3.org/1999/xlink" viewBox="0 0 1939.57 2345.94">
  <defs>
    <style>
      .cls-1 {
        fill: url(#linear-gradient-2);
      }

      .cls-2 {
        fill: url(#linear-gradient-3);
      }

      .cls-3 {
        fill: #fff;
        font-family: AVONE-Stencil, AVONE;
        font-size: 1296px;
      }

      .cls-4 {
        fill: url(#linear-gradient);
      }
    </style>
    <linearGradient id="linear-gradient" x1="1264.19" y1="381.11" x2="1798.96" y2="915.88" gradientUnits="userSpaceOnUse">
      <stop offset="0" stop-color="#ff0b4f"/>
      <stop offset=".08" stop-color="#ef0a5b"/>
      <stop offset=".53" stop-color="#a00599"/>
      <stop offset=".84" stop-color="#6f02c0"/>
      <stop offset="1" stop-color="#5c01d0"/>
    </linearGradient>
    <linearGradient id="linear-gradient-2" x1="-5.2" y1="494.29" x2="1870.56" y2="2370.05" xlink:href="#linear-gradient"/>
    <linearGradient id="linear-gradient-3" x1="-151.85" y1="232.5" x2="911.54" y2="1295.89" gradientUnits="userSpaceOnUse">
      <stop offset="0" stop-color="#303030"/>
      <stop offset=".56" stop-color="#4d4d4d"/>
      <stop offset="1" stop-color="#616161"/>
    </linearGradient>
  </defs>
  <g id="Layer_1-2" data-name="Layer_1">
    <g>
      <g>
        <path class="cls-4" d="M1458.6,792.61h463.63l-534.77-534.77v463.65c0,39.22,31.91,71.12,71.14,71.12Z"/>
        <path class="cls-1" d="M1444.69,855.11c-73.68,0-133.63-59.93-133.63-133.62V226.6H294.24c-42.32,0-76.63,34.31-76.63,76.63v1966.08c0,42.32,34.31,76.63,76.63,76.63h1568.7c42.32,0,76.63-34.31,76.63-76.63V855.11h-494.88Z"/>
        <path class="cls-2" d="M1338.41,0H137.68C61.64,0,0,61.64,0,137.68v1969.43h100.32V157.92c0-31.81,25.79-57.6,57.6-57.6h1180.49V0Z"/>
      </g>
      <text class="cls-3" transform="translate(868.81 1967.16)"><tspan x="0" y="0">i</tspan></text>
    </g>
  </g>
</svg>