<?xml version="1.0" encoding="UTF-8"?>
<svg id="Layer_2" xmlns="http://www.w3.org/2000/svg" xmlns:xlink="http://www.w3.org/1999/xlink" viewBox="0 0 10628.85 2345.94">
  <defs>
    <style>
      .cls-1 {
        fill: url(#linear-gradient-2);
      }

      .cls-2, .cls-3 {
        fill: #fff;
      }

      .cls-3 {
        font-family: AVONE-Stencil, AVONE;
        font-size: 1296px;
      }

      .cls-4 {
        fill: url(#linear-gradient);
      }
    </style>
    <linearGradient id="linear-gradient" x1="1264.19" y1="381.11" x2="1798.96" y2="915.88" gradientUnits="userSpaceOnUse">
      <stop offset="0" stop-color="#ff0b4f"/>
      <stop offset=".08" stop-color="#ef0a5b"/>
      <stop offset=".53" stop-color="#a00599"/>
      <stop offset=".84" stop-color="#6f02c0"/>
      <stop offset="1" stop-color="#5c01d0"/>
    </linearGradient>
    <linearGradient id="linear-gradient-2" x1="-5.2" y1="494.29" x2="1870.56" y2="2370.05" xlink:href="#linear-gradient"/>
  </defs>
  <g id="Layer_1-2" data-name="Layer_1">
    <g>
      <g>
        <path class="cls-4" d="M1458.6,792.61h463.63l-534.77-534.77v463.65c0,39.22,31.91,71.12,71.14,71.12Z"/>
        <path class="cls-1" d="M1444.69,855.11c-73.68,0-133.63-59.93-133.63-133.62V226.6H294.24c-42.32,0-76.63,34.31-76.63,76.63v1966.08c0,42.32,34.31,76.63,76.63,76.63h1568.7c42.32,0,76.63-34.31,76.63-76.63V855.11h-494.88Z"/>
        <path class="cls-2" d="M1338.41,0H137.68C61.64,0,0,61.64,0,137.68v1969.43h100.32V157.92c0-31.81,25.79-57.6,57.6-57.6h1180.49V0Z"/>
      </g>
      <text class="cls-3" transform="translate(868.81 1967.16)"><tspan x="0" y="0">i</tspan></text>
    </g>
    <g>
      <path class="cls-2" d="M2749.55,818.46c-27.14-26.26-40.72-59.64-40.72-100.13s13.84-75.49,41.53-101.75c27.68-26.26,62.8-39.4,105.38-39.4s77.7,13.14,105.38,39.4c27.68,26.26,41.53,60.18,41.53,101.75s-13.57,73.87-40.72,100.13c-27.14,26.26-62.55,39.38-106.19,39.38s-79.05-13.12-106.19-39.38ZM2729.61,938.27h250.69v810.79h-250.69v-810.79Z"/>
      <path class="cls-2" d="M3889.64,1018.69c58.02,65.66,87.04,156.48,87.04,272.46v457.91h-250.69v-443.15c0-52.52-12.78-93.54-38.33-123.08s-60.68-44.33-105.38-44.33c-48.98,0-88.36,16.96-118.16,50.87-29.8,33.92-44.7,78.24-44.7,132.96v426.73h-250.69v-810.79h217.16l15.98,95.18c30.86-36.09,67.84-63.99,110.96-83.7,43.1-19.69,90.75-29.54,142.92-29.54,97.91,0,175.88,32.83,233.9,98.48Z"/>
      <path class="cls-2" d="M4690.46,938.27h266.65l-333.72,810.79h-255.48l-335.32-810.79h273.04l94.22,244.54,97.41,293.79,97.39-293.79,95.81-244.54Z"/>
      <path class="cls-2" d="M5627.75,970.27c62.8,33.38,110.98,80.44,144.52,141.17,33.54,60.73,50.3,131.57,50.3,212.54,0,26.26-2.68,58.53-7.99,96.82h-579.64c7.45,41.59,29.28,75.23,65.47,100.94,36.19,25.72,82.49,38.57,138.92,38.57,39.39,0,77.7-6.02,114.97-18.05,37.25-12.03,69.19-28.99,95.81-50.87l130.93,144.43c-44.7,42.68-97.66,75.51-158.88,98.48-61.22,22.95-126.4,34.45-195.59,34.45-91.56,0-170.87-17.24-237.95-51.69-67.07-34.47-118.68-83.43-154.88-146.91-36.19-63.46-54.29-138.42-54.29-224.85s17.83-157.02,53.5-221.57c35.65-64.55,85.42-114.61,149.29-150.19,63.88-35.56,137.86-53.35,221.95-53.35s160.75,16.7,223.55,50.06ZM5290.04,1163.12c-31.42,26.28-49.24,62.93-53.5,109.96h348.1c-3.2-47.04-19.96-83.68-50.3-109.96-30.34-26.26-71.06-39.4-122.15-39.4s-90.75,13.14-122.15,39.4Z"/>
      <path class="cls-2" d="M6682.4,1018.69c58.02,65.66,87.04,156.48,87.04,272.46v457.91h-250.69v-443.15c0-52.52-12.78-93.54-38.33-123.08-25.55-29.54-60.68-44.33-105.38-44.33-48.98,0-88.36,16.96-118.16,50.87s-44.7,78.24-44.7,132.96v426.73h-250.69v-810.79h217.16l15.98,95.18c30.86-36.09,67.84-63.99,110.96-83.7,43.1-19.69,90.75-29.54,142.92-29.54,97.91,0,175.88,32.83,233.9,98.48Z"/>
      <path class="cls-2" d="M7508.76,1717.88c-61.76,31.72-131.49,47.59-209.19,47.59-86.23,0-154.36-24.87-204.39-74.66-50.03-49.79-75.04-129.93-75.04-240.46v-306.91h-134.12v-205.16h134.12v-201.88l249.09-27.9v229.78h196.4v205.16h-196.4v306.91c0,32.85,7.97,57.19,23.95,73.06s37.79,23.79,65.47,23.79c30.88,0,61.22-7.66,91.02-22.97l59.08,193.66Z"/>
      <path class="cls-2" d="M8442.89,938.27v810.79h-217.17l-15.96-96.84c-67.07,75.51-154.38,113.25-261.88,113.25-73.46,0-138.67-17.77-195.61-53.33s-101.4-85.35-133.33-149.36c-31.94-63.99-47.9-137.03-47.9-219.11s15.96-155.1,47.9-219.11c31.94-63.99,76.39-113.78,133.33-149.36,56.95-35.56,122.15-53.35,195.61-53.35,53.21,0,102.19,9.58,146.91,28.73,44.7,19.15,83.03,46.78,114.97,82.87l15.96-95.18h217.17ZM8142.69,1492.22c35.11-37.76,52.69-87.26,52.69-148.55s-17.58-110.77-52.69-148.53c-35.13-37.76-80.37-56.63-135.72-56.63s-100.34,19.15-134.93,57.44c-34.59,38.31-51.88,87.54-51.88,147.72s17.29,109.43,51.88,147.72c34.59,38.31,79.57,57.44,134.93,57.44s100.59-18.86,135.72-56.61Z"/>
      <path class="cls-2" d="M9188.56,940.73c36.19,13.69,67.59,33.66,94.22,59.92l-105.38,188.74c-22.37-14.21-43.12-24.62-62.28-31.19-19.17-6.57-39.39-9.85-60.68-9.85-53.23,0-95.27,17.51-126.15,52.54-30.88,35.02-46.3,86.43-46.3,154.27v393.92h-250.69v-810.79h218.75l19.16,101.75c51.09-79.86,121.36-119.82,210.78-119.82,36.19,0,72.39,6.85,108.58,20.52Z"/>
      <path class="cls-2" d="M9387.35,818.46c-27.14-26.26-40.72-59.64-40.72-100.13s13.84-75.49,41.53-101.75c27.68-26.26,62.8-39.4,105.38-39.4s77.7,13.14,105.38,39.4c27.68,26.26,41.53,60.18,41.53,101.75s-13.57,73.87-40.72,100.13c-27.14,26.26-62.55,39.38-106.19,39.38s-79.05-13.12-106.19-39.38ZM9367.41,938.27h250.69v810.79h-250.69v-810.79Z"/>
      <path class="cls-2" d="M9965.39,1713.78c-65.47-35.56-115.78-85.07-150.91-148.53-35.13-63.46-52.69-137.33-52.69-221.59s17.56-158.11,52.69-221.57c35.13-63.46,85.44-112.97,150.91-148.55,65.45-35.56,141.84-53.35,229.13-53.35s163.93,17.79,229.94,53.35c65.99,35.58,116.57,85.09,151.7,148.55,35.11,63.46,52.69,137.31,52.69,221.57s-17.58,158.13-52.69,221.59c-35.13,63.46-85.71,112.97-151.7,148.53-66.01,35.54-142.65,53.33-229.94,53.33s-163.67-17.79-229.13-53.33ZM10328.65,1491.39c34.07-38.29,51.11-87.52,51.11-147.72s-17.04-109.41-51.11-147.72c-34.07-38.29-78.78-57.44-134.12-57.44s-98.47,19.15-132.53,57.44c-34.07,38.31-51.09,87.54-51.09,147.72s17.02,109.43,51.09,147.72c34.06,38.31,78.24,57.44,132.53,57.44s100.05-19.13,134.12-57.44Z"/>
    </g>
  </g>
</svg>